<svg xmlns="http://www.w3.org/2000/svg" viewBox="0 0 1837.659 483.717"
  data-animated-arrow
>
  <path id="white--line" d="M1836 7.717c-69.149 24.322-193.913 396.614-317 395-133.065-1.745-265.466-376.866-362-330-179.036 86.92-199.333 320-444 330s-296 6-296 6H121" fill="none" stroke="#fff" stroke-width="10" stroke-dasharray="30 30"/>
  <path id="white--cover" d="M1836 7.717c-69.149 24.322-193.913 396.614-317 395-133.065-1.745-265.466-376.866-362-330-179.036 86.92-199.333 320-444 330s-296 6-296 6H121" fill="none" stroke="#252525" stroke-width="20" stroke-dasharray="60 60"/>
  <path id="red--line" d="M1833 4.717c-69.149 24.322-193.913 396.614-317 395-133.065-1.745-265.466-376.866-362-330-179.036 86.92-199.333 320-444 330s-296 6-296 6H118" fill="none" stroke="#f14d4c" stroke-width="10" stroke-dasharray="30 30"/>
  <path id="red--cover" d="M1833 4.717c-69.149 24.322-193.913 396.614-317 395-133.065-1.745-265.466-376.866-362-330-179.036 86.92-199.333 320-444 330s-296 6-296 6H118" fill="none" stroke="#252525" stroke-width="20" stroke-dasharray="60 60"/>
</svg>
