<svg xmlns="http://www.w3.org/2000/svg" xmlns:xlink="http://www.w3.org/1999/xlink" width="1049" height="976" viewBox="0 0 1049 976"><defs><clipPath id="a"><rect width="1049" height="976" transform="translate(513 335)" fill="none" stroke="#707070" stroke-width="1"/></clipPath></defs><g transform="translate(-513 -335)" clip-path="url(#a)"><g transform="translate(300.186 334.81)"><g transform="translate(211.054)"><path id="scope" class="transition-all scope" d="M981.321,248.313A182.332,182.332,0,0,0,888.636,24.5L882.02,8.869a14.382,14.382,0,0,0-18.792-7.791L735.776,53.9a45.082,45.082,0,0,0-24.5,58.8l.392.956L210.239,324.289a29.72,29.72,0,0,0-16.1,38.833l6.248,15.068L99.4,420.013l-.368-.882a29.719,29.719,0,0,0-38.833-16.1l-28.347,11.76a29.72,29.72,0,0,0-16.1,38.833L62.721,567.017a29.669,29.669,0,0,0,38.833,16.1l28.3-11.736a29.72,29.72,0,0,0,16.1-38.833l-.319-.882L246.623,489.84l6.248,15.068a29.681,29.681,0,0,0,38.907,16.072L331.983,504.1a13.5,13.5,0,0,0,4.459-1.862l119.808-50.3c3.315,11.483,16.165,17.29,16.165,17.29,13.319,6.733,32.662,5.287,32.662,5.287,30.677-.549,38.975-12.865,45.968-22.058,5.008-6.581,12.035-22.369,12.027-39.181a61.08,61.08,0,0,0-.319-6.1l230.452-96.753.343.833a45.055,45.055,0,0,0,58.8,24.5L980.023,282.81a14.38,14.38,0,0,0,7.791-18.792ZM119.416,544.28a.911.911,0,0,1-.515.515L90.652,556.53a.956.956,0,0,1-1.25-.515L42.337,442.627a.956.956,0,0,1,.515-1.25L71.2,429.642a.929.929,0,0,1,.368,0,.929.929,0,0,1,.368,0,.911.911,0,0,1,.515.515l23.5,56.694,17.616,42.533h0l5.88,14.186A.906.906,0,0,1,119.416,544.28Zm15.19-39.2-12.1-29.254L110.4,446.6l100.991-41.822L235.6,463.257Zm816.31-375.226a153.187,153.187,0,0,1,11.123,71.958L907.917,71.052A153.182,153.182,0,0,1,950.916,129.853ZM280.7,494.4a.955.955,0,0,1-1.25-.514L250.053,423l-17.616-42.533h0L220.7,352.122a.906.906,0,0,1,0-.735.956.956,0,0,1,.588-.539L250.4,338.6l59.438,143.524Zm253.605-81.1a31.642,31.642,0,1,1,0-.025Zm18.718-33.223c-25.576-38.824-83.591-35.4-104.424,6.162a60.4,60.4,0,0,0-5.045,39.8L336.393,471,276.856,327.475l445.91-187.135,59.438,143.524ZM841.4,309.026a16.318,16.318,0,0,1-21.291-8.82l-82.2-198.455a16.294,16.294,0,0,1,8.82-21.291l114.3-47.335,94.67,228.566Z" transform="matrix(0.678, 0.735, -0.735, 0.678, 454.874, -238.079)" fill="#fff"/></g><g transform="translate(210.012 -1)"><path d="M542.939,372.721,494.39,346.056c-35.465-3.6-54.28,32.569-54.28,32.569-20.275,42.6,11.856,69.528,13.733,71.267l-273.688,492.6a14.14,14.14,0,1,0,24.714,13.73L318.082,752.317H480.074v197.04a14.14,14.14,0,1,0,28.279,0V752.317h161.9L783.463,956.222a14.14,14.14,0,1,0,24.714-13.73L534.561,449.844a59.234,59.234,0,0,0,19.03-43.527C553.586,404.313,558.481,403.2,542.939,372.721Zm-17.628,33.62a31.11,31.11,0,1,1,0-.024ZM333.86,724.062l144.673-260.44,1.518.385V724.158Zm320.66,0H508.257V463.911l1.518-.385Z" transform="translate(3.565 -0.217) rotate(0.974)" fill="#fff"/></g></g></g></svg>
